<svg xmlns="http://www.w3.org/2000/svg" width="1100" height="550" viewBox="0 0 1100 550">
<rect width="1100" height="550" rx="28" fill="white"/>
<text x="48" y="54" font-family="Inter, Sora, Arial, Helvetica, sans-serif" font-size="34" font-weight="800" fill="#0F172A">Giftr Color Palette</text>
<rect x="48" y="92" width="150" height="58" rx="12" fill="#14B8A6" stroke="none"/><text x="48" y="178" font-family="Inter, Sora, Arial, Helvetica, sans-serif" font-size="18" font-weight="700" fill="#0F172A">Primary Teal</text><text x="48" y="202" font-family="Inter, Sora, Arial, Helvetica, sans-serif" font-size="15" fill="#64748B">#14B8A6</text><rect x="253" y="92" width="150" height="58" rx="12" fill="#FF7A00" stroke="none"/><text x="253" y="178" font-family="Inter, Sora, Arial, Helvetica, sans-serif" font-size="18" font-weight="700" fill="#0F172A">Tangerine</text><text x="253" y="202" font-family="Inter, Sora, Arial, Helvetica, sans-serif" font-size="15" fill="#64748B">#FF7A00</text><rect x="458" y="92" width="150" height="58" rx="12" fill="#0F172A" stroke="none"/><text x="458" y="178" font-family="Inter, Sora, Arial, Helvetica, sans-serif" font-size="18" font-weight="700" fill="#0F172A">Navy / Slate</text><text x="458" y="202" font-family="Inter, Sora, Arial, Helvetica, sans-serif" font-size="15" fill="#64748B">#0F172A</text><rect x="663" y="92" width="150" height="58" rx="12" fill="#E6FAF5" stroke="none"/><text x="663" y="178" font-family="Inter, Sora, Arial, Helvetica, sans-serif" font-size="18" font-weight="700" fill="#0F172A">Soft Mint</text><text x="663" y="202" font-family="Inter, Sora, Arial, Helvetica, sans-serif" font-size="15" fill="#64748B">#E6FAF5</text><rect x="868" y="92" width="150" height="58" rx="12" fill="#22C55E" stroke="none"/><text x="868" y="178" font-family="Inter, Sora, Arial, Helvetica, sans-serif" font-size="18" font-weight="700" fill="#0F172A">Success Green</text><text x="868" y="202" font-family="Inter, Sora, Arial, Helvetica, sans-serif" font-size="15" fill="#64748B">#22C55E</text><rect x="48" y="222" width="150" height="58" rx="12" fill="#F59E0B" stroke="none"/><text x="48" y="308" font-family="Inter, Sora, Arial, Helvetica, sans-serif" font-size="18" font-weight="700" fill="#0F172A">Pending Amber</text><text x="48" y="332" font-family="Inter, Sora, Arial, Helvetica, sans-serif" font-size="15" fill="#64748B">#F59E0B</text><rect x="253" y="222" width="150" height="58" rx="12" fill="#EF4444" stroke="none"/><text x="253" y="308" font-family="Inter, Sora, Arial, Helvetica, sans-serif" font-size="18" font-weight="700" fill="#0F172A">Error Red</text><text x="253" y="332" font-family="Inter, Sora, Arial, Helvetica, sans-serif" font-size="15" fill="#64748B">#EF4444</text><rect x="458" y="222" width="150" height="58" rx="12" fill="#C7F7F0" stroke="none"/><text x="458" y="308" font-family="Inter, Sora, Arial, Helvetica, sans-serif" font-size="18" font-weight="700" fill="#0F172A">Aqua Support</text><text x="458" y="332" font-family="Inter, Sora, Arial, Helvetica, sans-serif" font-size="15" fill="#64748B">#C7F7F0</text><rect x="663" y="222" width="150" height="58" rx="12" fill="#6366F1" stroke="none"/><text x="663" y="308" font-family="Inter, Sora, Arial, Helvetica, sans-serif" font-size="18" font-weight="700" fill="#0F172A">Periwinkle</text><text x="663" y="332" font-family="Inter, Sora, Arial, Helvetica, sans-serif" font-size="15" fill="#64748B">#6366F1</text><rect x="868" y="222" width="150" height="58" rx="12" fill="#FFA24D" stroke="none"/><text x="868" y="308" font-family="Inter, Sora, Arial, Helvetica, sans-serif" font-size="18" font-weight="700" fill="#0F172A">Accent Orange</text><text x="868" y="332" font-family="Inter, Sora, Arial, Helvetica, sans-serif" font-size="15" fill="#64748B">#FFA24D</text><rect x="48" y="352" width="150" height="58" rx="12" fill="#0F172A" stroke="none"/><text x="48" y="438" font-family="Inter, Sora, Arial, Helvetica, sans-serif" font-size="18" font-weight="700" fill="#0F172A">Slate 900</text><text x="48" y="462" font-family="Inter, Sora, Arial, Helvetica, sans-serif" font-size="15" fill="#64748B">#0F172A</text><rect x="253" y="352" width="150" height="58" rx="12" fill="#334155" stroke="none"/><text x="253" y="438" font-family="Inter, Sora, Arial, Helvetica, sans-serif" font-size="18" font-weight="700" fill="#0F172A">Slate 700</text><text x="253" y="462" font-family="Inter, Sora, Arial, Helvetica, sans-serif" font-size="15" fill="#64748B">#334155</text><rect x="458" y="352" width="150" height="58" rx="12" fill="#64748B" stroke="none"/><text x="458" y="438" font-family="Inter, Sora, Arial, Helvetica, sans-serif" font-size="18" font-weight="700" fill="#0F172A">Slate 500</text><text x="458" y="462" font-family="Inter, Sora, Arial, Helvetica, sans-serif" font-size="15" fill="#64748B">#64748B</text><rect x="663" y="352" width="150" height="58" rx="12" fill="#CBD5E1" stroke="none"/><text x="663" y="438" font-family="Inter, Sora, Arial, Helvetica, sans-serif" font-size="18" font-weight="700" fill="#0F172A">Slate 300</text><text x="663" y="462" font-family="Inter, Sora, Arial, Helvetica, sans-serif" font-size="15" fill="#64748B">#CBD5E1</text><rect x="868" y="352" width="150" height="58" rx="12" fill="#E2E8F0" stroke="none"/><text x="868" y="438" font-family="Inter, Sora, Arial, Helvetica, sans-serif" font-size="18" font-weight="700" fill="#0F172A">Slate 200</text><text x="868" y="462" font-family="Inter, Sora, Arial, Helvetica, sans-serif" font-size="15" fill="#64748B">#E2E8F0</text><rect x="48" y="482" width="150" height="58" rx="12" fill="#F1F5F9" stroke="none"/><text x="48" y="568" font-family="Inter, Sora, Arial, Helvetica, sans-serif" font-size="18" font-weight="700" fill="#0F172A">Slate 100</text><text x="48" y="592" font-family="Inter, Sora, Arial, Helvetica, sans-serif" font-size="15" fill="#64748B">#F1F5F9</text><rect x="253" y="482" width="150" height="58" rx="12" fill="#FFFFFF" stroke="#E2E8F0"/><text x="253" y="568" font-family="Inter, Sora, Arial, Helvetica, sans-serif" font-size="18" font-weight="700" fill="#0F172A">White</text><text x="253" y="592" font-family="Inter, Sora, Arial, Helvetica, sans-serif" font-size="15" fill="#64748B">#FFFFFF</text>
</svg>